name C:\Users\u0101727\Documents\MyRepositories\predictivesimulations\OpenSimModel\subject1\EMG\EMG_gait_60.mot
datacolumns 25
datarows 7
range 0.00100000 0.00700000
endheader
time	HamL_r	TA_r	PerL_r	GL_r	HamM_r	Sol_r	VL_r	VM_r	PerB_l	TA_l	PerL_l	GL_l	GM_l	Sol_l	VL_l	VM_l	AddL_l	RF_l	TFL_l	GluMed_l	HamL_l	HamM_l	GluMed_r	RF_r	
          0.00100000	          0.00222074	          0.00123805	          0.00118936	          0.00152391	          0.00100000	          0.02790794	          0.00100000	          0.00100000	          0.00207073	          0.02918039	          0.00100000	          0.00100000	          0.00100000	          0.00296978	          0.00100000	          0.00100000	          0.00147583	          0.00100000	          0.00100000	          0.00100000	          0.00130209	          0.00100000	          0.00100000	          0.00100000	
          0.00200000	          0.00233369	          0.00139027	          0.00130145	          0.00161501	          0.00100000	          0.02973959	          0.00100000	          0.00100000	          0.00234831	          0.03028297	          0.00100000	          0.00100000	          0.00100000	          0.00335036	          0.00112798	          0.00101484	          0.00168937	          0.00100000	          0.00113730	          0.00100000	          0.00144263	          0.00100000	          0.00100000	          0.00100000	
          0.00300000	          0.00244657	          0.00154187	          0.00141314	          0.00170657	          0.00100000	          0.03157884	          0.00100000	          0.00100000	          0.00262408	          0.03139795	          0.00100000	          0.00100000	          0.00100000	          0.00372110	          0.00128834	          0.00116772	          0.00190347	          0.00112779	          0.00133185	          0.00100000	          0.00158617	          0.00100000	          0.00120146	          0.00100000	
          0.00400000	          0.00255872	          0.00169231	          0.00152395	          0.00179802	          0.00100000	          0.03341756	          0.00100000	          0.00100000	          0.00289665	          0.03252145	          0.00100000	          0.00100000	          0.00100000	          0.00407987	          0.00144806	          0.00132007	          0.00211743	          0.00129313	          0.00152683	          0.00100000	          0.00173208	          0.00100000	          0.00237232	          0.00100000	
          0.00500000	          0.00266951	          0.00184107	          0.00163345	          0.00188887	          0.00100000	          0.03524876	          0.00103161	          0.00107795	          0.00316482	          0.03364916	          0.00100000	          0.00100000	          0.00100000	          0.00442473	          0.00160673	          0.00147124	          0.00233061	          0.00145645	          0.00172157	          0.00100000	          0.00187986	          0.00100000	          0.00353885	          0.00121414	
          0.00600000	          0.00277834	          0.00198763	          0.00174116	          0.00197878	          0.00100000	          0.03706627	          0.00129363	          0.00117086	          0.00342755	          0.03477638	          0.00100000	          0.00107588	          0.00100000	          0.00475395	          0.00176392	          0.00162073	          0.00254236	          0.00161728	          0.00191558	          0.00100000	          0.00202923	          0.00100000	          0.00469791	          0.00153620	
          0.00700000	          0.00288463	          0.00213146	          0.00184667	          0.00206751	          0.00100000	          0.03886427	          0.00155134	          0.00126284	          0.00368402	          0.03589819	          0.00100000	          0.00143324	          0.00100000	          0.00506599	          0.00191927	          0.00176816	          0.00275210	          0.00177519	          0.00210848	          0.00120407	          0.00217999	          0.00100000	          0.00584716	          0.00185844	
